<?xml version="1.0" encoding="iso-8859-1"?>
<!-- Uploaded to: SVG Repo, www.svgrepo.com, Generator: SVG Repo Mixer Tools -->
<svg fill="hsl(271, 81%, 28%)" version="1.1" id="Layer_1" xmlns="http://www.w3.org/2000/svg" xmlns:xlink="http://www.w3.org/1999/xlink" 
	 viewBox="0 0 512 512" xml:space="preserve">
<g>
	<g>
		<path d="M490.667,112V0h-160v176h-32v96H160v96H21.333v144h432V176H346.667v-64H490.667z M346.667,16h128v80h-128V16z M176,288
			h122.667v26.667H176V288z M37.333,384H160v26.667H37.333V384z M437.333,496h-400v-69.333H160v34.667h16V330.667h122.667v56h16
			v-152h122.667V496z M437.333,192v26.667H314.667V192H437.333z"/>
	</g>
</g>
<g>
	<g>
		<rect x="413.333" y="32" width="37.333" height="16"/>
	</g>
</g>
<g>
	<g>
		<rect x="370.667" y="64" width="80" height="16"/>
	</g>
</g>
<g>
	<g>
		<polygon points="194.667,58.667 194.667,74.667 239.353,74.667 39.677,274.342 50.99,285.658 250.667,85.981 250.667,120 
			266.667,120 266.667,58.667 		"/>
	</g>
</g>
<g>
	<g>
		<rect x="50.667" y="442.667" width="21.333" height="16"/>
	</g>
</g>
<g>
	<g>
		<rect x="125.333" y="442.667" width="21.333" height="16"/>
	</g>
</g>
<g>
	<g>
		<rect x="189.333" y="346.667" width="21.333" height="16"/>
	</g>
</g>
<g>
	<g>
		<rect x="264" y="346.667" width="21.333" height="16"/>
	</g>
</g>
<g>
	<g>
		<rect x="328" y="250.667" width="21.333" height="16"/>
	</g>
</g>
<g>
	<g>
		<rect x="402.667" y="250.667" width="21.333" height="16"/>
	</g>
</g>
</svg>